<svg xmlns="http://www.w3.org/2000/svg" viewBox="0 0 100 100">
  <path d="M33.11 32.2c-8.88 0-16.1-7.22-16.1-16.1S24.23 0 33.11 0c8.88 0 16.1 7.22 16.1 16.1s-7.23 16.1-16.1 16.1zm0-28.2c-6.67 0-12.1 5.43-12.1 12.1s5.43 12.1 12.1 12.1 12.1-5.43 12.1-12.1S39.78 4 33.11 4z"/>
  <path d="M11.61 63.1v-9.4c0-11.85 9.64-21.5 21.5-21.5 7.61 0 14.3 3.99 18.12 9.97 1.32-.3 2.64-.7 3.98-1.18-4.41-7.64-12.66-12.8-22.1-12.8-14.06 0-25.5 11.44-25.5 25.5v9.4c0 5.6 4.06 10.28 9.4 11.22V100h4V70.5h-2c-4.08 0-7.4-3.32-7.4-7.4z"/>
  <path d="M63.39 41.94c5.82 3.18 11.73 5.06 17.9 5.27 1.05.04 2.11.03 3.17-.03 1.95-.11 3.92-.38 5.93-.83v21.24c0 7-3.23 13.02-8.72 18.33-4.8 4.65-11.21 8.6-18.28 12.08-7.07-3.48-13.48-7.43-18.28-12.09-5.49-5.31-8.72-11.32-8.72-18.33V46.35c2 .45 3.98.72 5.92.83 1.07.06 2.12.07 3.17.03 6.18-.21 12.09-2.09 17.91-5.27z" style="fill:#b7bcc4"/>
  <path d="M63.39 100c-.3 0-.61-.07-.88-.21-8.13-4.01-14.28-8.08-18.79-12.45-6.19-5.99-9.33-12.64-9.33-19.76V46.35c0-.61.28-1.18.75-1.56.47-.38 1.1-.52 1.69-.39 1.87.42 3.75.68 5.59.79 1 .06 2 .07 2.99.03 5.6-.19 11.17-1.84 17.02-5.03.6-.33 1.32-.33 1.91 0 5.85 3.19 11.42 4.83 17.01 5.03.99.04 2 .02 2.99-.03 1.85-.1 3.73-.37 5.6-.79.59-.13 1.22.01 1.69.39s.75.95.75 1.56v21.24c0 7.12-3.14 13.77-9.33 19.76-4.51 4.37-10.66 8.44-18.79 12.44-.26.14-.56.21-.87.21zm-25-51.23v18.82c0 6.08 2.65 11.61 8.11 16.89 4.05 3.92 9.58 7.62 16.89 11.29 7.31-3.67 12.84-7.37 16.89-11.29 5.46-5.28 8.11-10.81 8.11-16.89V48.77c-1.28.2-2.55.34-3.81.41-1.12.06-2.25.07-3.35.03-5.92-.2-11.76-1.84-17.83-5-6.07 3.16-11.91 4.8-17.83 5-1.11.04-2.24.03-3.35-.04-1.28-.06-2.55-.2-3.83-.4z"/>
</svg>
