<svg xmlns="http://www.w3.org/2000/svg" viewBox="0 0 100 100">
  <path class="st0" d="M33.11 32.2c-8.88 0-16.1-7.22-16.1-16.1S24.23 0 33.11 0c8.88 0 16.1 7.22 16.1 16.1s-7.23 16.1-16.1 16.1zm0-28.2c-6.67 0-12.1 5.43-12.1 12.1s5.43 12.1 12.1 12.1 12.1-5.43 12.1-12.1S39.78 4 33.11 4z"/>
  <path class="st0" d="M11.61 63.1v-9.4c0-11.85 9.64-21.5 21.5-21.5 5.67 0 10.82 2.22 14.66 5.82 1.97-.07 3.94.11 5.86.57-4.65-6.3-12.12-10.39-20.52-10.39-14.06 0-25.5 11.44-25.5 25.5v9.4c0 5.6 4.06 10.28 9.4 11.22V100h4V70.5h-2c-4.08 0-7.4-3.32-7.4-7.4z"/>
  <path d="m36.04 72.44.47.49L61.16 98l24.66-25.06.48-.49-.01-.01c6.57-6.94 6.5-17.97-.23-24.81a17.227 17.227 0 0 0-24.41-.24l-.01-.01-.48.49-.48-.49-.01.01a17.227 17.227 0 0 0-24.41.24c-6.72 6.84-6.79 17.88-.22 24.81z" style="fill:#b7bcc4"/>
  <path class="st0" d="M61.17 100c-.54 0-1.05-.21-1.43-.6L34.6 73.85c-.05-.06-.11-.11-.15-.17-7.14-7.69-6.98-19.96.39-27.45 7.15-7.27 18.7-7.66 26.32-1.1 7.62-6.56 19.17-6.16 26.32 1.1 7.37 7.49 7.53 19.76.39 27.45-.05.06-.1.12-.16.18L62.59 99.4c-.38.39-.89.6-1.42.6zM37.58 71.18l23.58 23.97 23.58-23.97c.03-.04.06-.08.1-.11 5.81-6.13 5.71-16.02-.21-22.03-5.9-5.99-15.58-6.09-21.59-.21-.04.04-.07.07-.11.1l-.35.35c-.38.38-.89.6-1.42.6-.54 0-1.05-.22-1.43-.6l-.34-.35c-.04-.03-.08-.07-.11-.1-6.01-5.88-15.69-5.78-21.59.21-5.92 6.02-6.01 15.9-.21 22.03.04.04.07.07.1.11z"/>
</svg>
