<svg xmlns="http://www.w3.org/2000/svg" viewBox="0 0 44 44">
  <rect height="36" width="36" x="4" y="4" fill="white" />
  <path d="M21.9545 21.9564C24.9767 21.9564 27.4656 19.4675 27.4656 16.4453H16.4434C16.4434 19.4675 18.9322 21.9564 21.9545 21.9564Z" fill="#00A550" />
  <path d="M40.6222 0H3.28889C1.42222 0 0 1.42222 0 3.28889V40.7111C0 42.4889 1.42222 44 3.28889 44H40.7111C42.4889 44 44 42.5778 44 40.7111V3.28889C43.9111 1.42222 42.4889 0 40.6222 0ZM38.4 27.4667H27.4667V38.4889H16.4444V27.4667H5.51111V16.4444H16.4444V5.51111H27.4667V16.5333H38.4V27.4667Z" fill="#00A550" />
</svg>
